<svg id="Group_64404" data-name="Group 64404" xmlns="http://www.w3.org/2000/svg" width="81.174" height="14.569" viewBox="0 0 81.174 14.569">
  <path id="Path_74327" data-name="Path 74327" d="M631.7,152a2.064,2.064,0,0,1-.245.711,1.046,1.046,0,0,1-.434.406,1.473,1.473,0,0,1-.624.129,1.775,1.775,0,0,1-.693-.12,1.063,1.063,0,0,1-.476-.434,1.93,1.93,0,0,1-.356-.951c-.032-.217-.051-.476-.065-.771h5.547v-.91a7.918,7.918,0,0,0-.425-2.794,3.16,3.16,0,0,0-1.339-1.649,4.179,4.179,0,0,0-2.194-.545,5.1,5.1,0,0,0-1.316.166,3.482,3.482,0,0,0-1.132.527,3.748,3.748,0,0,0-.9.91,5.68,5.68,0,0,0-.462.951,7.988,7.988,0,0,0-.208,4.678,5.277,5.277,0,0,0,.651,1.5,3.877,3.877,0,0,0,.882.878,3.457,3.457,0,0,0,1.154.545,5.3,5.3,0,0,0,1.408.18,4.521,4.521,0,0,0,2-.416,3.255,3.255,0,0,0,1.335-1.168A3.978,3.978,0,0,0,634.4,152Zm-2.886-2.9a2.925,2.925,0,0,1,.13-.781,2.809,2.809,0,0,1,.244-.577,1.393,1.393,0,0,1,1.21-.573,1.178,1.178,0,0,1,1.025.466,2.753,2.753,0,0,1,.36,1.533h-2.974a.342.342,0,0,0,0-.069" transform="translate(-569.652 -140.832)" fill="#f15a22"/>
  <path id="Path_74328" data-name="Path 74328" d="M657.76,155.011a2.7,2.7,0,0,1-1.227-1.039,3.228,3.228,0,0,1-.416-1.722v-.3h2.553v.336a1.031,1.031,0,0,0,.267.762,1.149,1.149,0,0,0,.841.267,1.322,1.322,0,0,0,.455-.079.907.907,0,0,0,.337-.2.368.368,0,0,0,.178-.247,1.51,1.51,0,0,0,.04-.346,1.277,1.277,0,0,0-.089-.5.655.655,0,0,0-.326-.326q-.238-.119-.614-.3l-1.346-.436a2.606,2.606,0,0,1-2.177-2.81,3.367,3.367,0,0,1,.089-.762,2.491,2.491,0,0,1,.267-.693,3.187,3.187,0,0,1,.416-.564,2.965,2.965,0,0,1,1.207-.732,5.31,5.31,0,0,1,1.722-.257,4.636,4.636,0,0,1,1.92.366,2.661,2.661,0,0,1,1.227,1.059,3.3,3.3,0,0,1,.416,1.722v.257h-2.514v-.218a1.117,1.117,0,0,0-.3-.841,1.206,1.206,0,0,0-.871-.287,1.48,1.48,0,0,0-.445.059.664.664,0,0,0-.327.237.475.475,0,0,0-.159.247,1.193,1.193,0,0,0-.039.307,1.055,1.055,0,0,0,.079.445.783.783,0,0,0,.337.317,6.562,6.562,0,0,0,.613.307l1.128.336a5.072,5.072,0,0,1,1.366.663,2.288,2.288,0,0,1,.782.96,3.324,3.324,0,0,1,.248,1.326,3.639,3.639,0,0,1-.089.821,2.877,2.877,0,0,1-.257.7,2.668,2.668,0,0,1-.386.554,3.426,3.426,0,0,1-1.247.723,5.187,5.187,0,0,1-1.663.247,4.858,4.858,0,0,1-2-.366" transform="translate(-590.956 -140.829)" fill="#f15a22"/>
  <path id="Path_74329" data-name="Path 74329" d="M683.453,131.876h2.691v4.1l-.6,2.494h.281a7.429,7.429,0,0,1,.752-1.583,2.642,2.642,0,0,1,.95-.891,2.681,2.681,0,0,1,1.286-.3,2.816,2.816,0,0,1,1.514.376,2.343,2.343,0,0,1,.911,1.069,4.321,4.321,0,0,1,.307,1.742v6.848h-2.672v-6.076a1.815,1.815,0,0,0-.287-1.1,1.071,1.071,0,0,0-.92-.386,1.3,1.3,0,0,0-.791.247,1.693,1.693,0,0,0-.535.683,2.573,2.573,0,0,0-.2,1.069v5.562h-2.691Z" transform="translate(-610.375 -131.459)" fill="#f15a22"/>
  <path id="Path_74330" data-name="Path 74330" d="M580.117,133.988v.3l-2.42,0v-.905a.453.453,0,0,0-.905,0v1.9h3.325v2.277h-3.325v7.38H574.1v-7.38h-1.464v-2.277H574.1v-1.108a4.315,4.315,0,0,1,.356-1.9,2.42,2.42,0,0,1,1.127-1.127,2.76,2.76,0,0,1,1.256-.245,4.251,4.251,0,0,1,1.718.273,2.53,2.53,0,0,1,1.205,1,3.909,3.909,0,0,1,.356,1.82" transform="translate(-531.652 -130.762)" fill="#f15a22"/>
  <path id="Path_74331" data-name="Path 74331" d="M609.428,144.862a5.334,5.334,0,0,0-1.534,1.547,7.667,7.667,0,0,1-1.439,1.646,2.265,2.265,0,0,1-2.057.452,4.431,4.431,0,0,1,1.6-2.284c-.081-.136-.289-.053-.415.041a3.741,3.741,0,0,0-1.976,3.844q0,2.2-.006,4.4c0-.036-2.4.048-2.614,0-.115-.026-.079-.092-.079-.211v-9.544l2.687,0q0,.9.008,1.81a3.6,3.6,0,0,1,2.571-2.251,5.4,5.4,0,0,1,3.25.549" transform="translate(-551.735 -140.24)" fill="#f15a22"/>
  <path id="Path_74332" data-name="Path 74332" d="M532.724,144.96c0,.18-.048.252-.239.246-.645-.027-1.29.031-1.935-.043a3.59,3.59,0,0,1-1.927-.85,7.313,7.313,0,0,1-1.646-2.146c-.755-1.363-1.5-2.73-2.266-4.088-.206-.369-.472-.7-.7-1.077v.2q0,3.847,0,7.7c0,.3,0,.307-.3.3a13.883,13.883,0,0,1-1.753-.04,2.075,2.075,0,0,1-1.72-1.79,5.263,5.263,0,0,1-.033-.582c0-.925,0-1.851,0-2.776l.008-8.684a.121.121,0,0,1,.137-.1,18.469,18.469,0,0,1,2.718.074,4.344,4.344,0,0,1,3.085,2.225c.6,1.009,1.09,2.081,1.636,3.121.4.762.785,1.531,1.179,2.295a.478.478,0,0,0,.059.069v-.244q0-3.617,0-7.233c0-.307,0-.308.312-.308.491,0,.983-.015,1.473,0a1.936,1.936,0,0,1,1.717,1.023,1.8,1.8,0,0,1,.193.9q0,4.929,0,9.854c0,.652-.007,1.3,0,1.955" transform="translate(-494.404 -130.991)" fill="#045433"/>
  <path id="Path_74333" data-name="Path 74333" d="M489.412,132.816q-.081-.15-.178-.3a4.637,4.637,0,0,0-2.991-1.924,12.27,12.27,0,0,0-2.569-.158,19.033,19.033,0,0,0-4.391.538c-.291.064-.29.07-.29.37q0,5.389,0,10.779a3.912,3.912,0,0,0,.115.938,2.062,2.062,0,0,0,1.992,1.584c.518,0,1.036-.006,1.553.005.19,0,.24-.065.238-.244-.008-.726,0-1.451,0-2.176V140c0-.091-.014-.175.135-.144a7.187,7.187,0,0,0,2.644.078,4.968,4.968,0,0,0,3.249-1.847,4.547,4.547,0,0,0,.5-.783,5.062,5.062,0,0,0,.515-2.134,4.5,4.5,0,0,0-.515-2.349m-3.467,3.106a1.25,1.25,0,0,1-1.22.916,5.014,5.014,0,0,1-1.643-.1c-.144-.033-.2-.091-.2-.241.008-.45,0-.9,0-1.349s0-.886,0-1.328c0-.107,0-.2.144-.22a6.248,6.248,0,0,1,1.886-.023,1.136,1.136,0,0,1,.985.834,2.7,2.7,0,0,1,.044,1.509" transform="translate(-465.129 -130.437)" fill="#045433"/>
  <path id="Path_74334" data-name="Path 74334" d="M444.09,131.51c-.131.129-.261.257-.39.388-.521.522-1.03,1.055-1.521,1.605q-1.752,1.964-3.362,4.043a.218.218,0,0,0-.013.3c.807,1.115,1.567,2.265,2.481,3.3a14.445,14.445,0,0,0,1.307,1.342,2.837,2.837,0,0,0,1.125.618c.051.015.1.027.153.039.2.043.232.126.174.3s-.116.347-.186.514a2.918,2.918,0,0,1-.367.664,1.628,1.628,0,0,1-1.092.663,3.535,3.535,0,0,1-3.316-1.2,45.957,45.957,0,0,1-3.909-5.222c-.026-.038-.04-.086-.1-.1a.378.378,0,0,0-.028.228q0,2.952,0,5.9c0,.318,0,.324-.324.317a17.39,17.39,0,0,1-1.793-.039,2.056,2.056,0,0,1-1.765-1.85c-.021-.281-.032-.563-.032-.845q0-5.429,0-10.86c0-.074,0-.148,0-.222,0-.106.047-.161.16-.158.578.018,1.156-.033,1.733.038a2.2,2.2,0,0,1,2.02,2.268c.006,1.054,0,2.11,0,3.164v.239l.049.016q.392-.546.783-1.093A28.3,28.3,0,0,1,439.086,132a2.564,2.564,0,0,1,1.854-.756h3.046c.075,0,.178-.039.213.063s-.051.145-.108.2" transform="translate(-431.126 -131.007)" fill="#045433"/>
</svg>
